<?xml version="1.0" encoding="UTF-8"?>
<!DOCTYPE svg PUBLIC "-//W3C//DTD SVG 1.1//EN" "http://www.w3.org/Graphics/SVG/1.1/DTD/svg11.dtd">
<svg xmlns="http://www.w3.org/2000/svg" version="1.1" width="664px" height="604px" style="shape-rendering:geometricPrecision; text-rendering:geometricPrecision; image-rendering:optimizeQuality; fill-rule:evenodd; clip-rule:evenodd" xmlns:xlink="http://www.w3.org/1999/xlink">
<g><path style="opacity:0.969" fill="#fd6e00" d="M 274.5,28.5 C 312.835,28.3333 351.168,28.5 389.5,29C 390.022,29.5613 390.355,30.228 390.5,31C 376.014,50.8226 361.514,70.6559 347,90.5C 342.304,96.8531 337.304,102.853 332,108.5C 330.056,107.561 328.389,106.227 327,104.5C 309.167,80.1667 291.333,55.8333 273.5,31.5C 273.685,30.4163 274.018,29.4163 274.5,28.5 Z"/></g>
<g><path style="opacity:0.992" fill="#fe6e00" d="M 330.5,112.5 C 331.239,112.369 331.906,112.536 332.5,113C 417.71,226.604 502.544,340.437 587,454.5C 587.49,455.793 587.657,457.127 587.5,458.5C 416.833,458.5 246.167,458.5 75.5,458.5C 75.3433,457.127 75.51,455.793 76,454.5C 161.072,340.693 245.906,226.693 330.5,112.5 Z M 330.5,198.5 C 332.017,198.511 333.184,199.177 334,200.5C 345.848,216.677 357.681,232.844 369.5,249C 356.563,257.482 343.23,265.315 329.5,272.5C 316.347,266.423 303.347,260.09 290.5,253.5C 304.27,235.41 317.603,217.077 330.5,198.5 Z M 383.5,273.5 C 386.888,273.188 389.388,274.521 391,277.5C 422.711,320.423 454.545,363.256 486.5,406C 383.498,406.833 280.498,406.667 177.5,405.5C 209.859,362.308 242.026,318.974 274,275.5C 293.202,283.898 312.536,291.898 332,299.5C 349.775,291.697 366.942,283.03 383.5,273.5 Z"/></g>
<g><path style="opacity:0.99" fill="#fe6e00" d="M 267.5,475.5 C 310.168,475.333 352.835,475.5 395.5,476C 395.957,476.414 396.291,476.914 396.5,477.5C 376.807,504.026 357.307,530.693 338,557.5C 336.024,559.877 333.857,561.877 331.5,563.5C 329.543,562.046 327.71,560.38 326,558.5C 308.386,533.885 290.386,509.552 272,485.5C 269.65,482.473 268.15,479.14 267.5,475.5 Z"/></g>
</svg>
